<svg xmlns="http://www.w3.org/2000/svg" enable-background="new 0 0 511.999 511.999" height="511.9989929199219" width="511.9989929199219"><rect id="backgroundrect" width="100%" height="100%" x="0" y="0" fill="none" stroke="none"/><g class="currentLayer" style=""><title>Layer 1</title><g id="svg_2" class="" fill-opacity="1" fill="#224965"><path d="m498.795863986969,512.6839300861359 h-482.853 c-8.048,0 -14.573,-6.525 -14.573,-14.573 v-482.853 c0,-8.048 6.525,-14.573 14.573,-14.573 h482.852 c8.048,0 14.573,6.525 14.573,14.573 v482.853 c0.001000000000000001,8.048 -6.524,14.573 -14.572,14.573 z" fill="#224965" id="svg_3"/></g><path d="m476.529863986969,439.06293008613585 l7.692,-12.238 v-56.713 l-6.748,-7.024 v-41.55 l6.748,-8.139 v-56.714 l-4.602,-5.8870000000000005 v-45.843 l4.602,-4.984 v-56.713 l-3.486,-2.517 v-49.792 l3.486,-4.404 v-50.51 c0,-3.426 -2.778,-6.204 -6.204,-6.204 h-50.51 l-6.351,4.114 h-44.813 l-5.55,-4.114 h-56.713 l-7.017,4.372 h-44.04 l-5.654,-4.371 h-56.713 l-7.682,4.6290000000000004 h-42.752 l-6.279,-4.6290000000000004 h-56.714 l-56.713,56.713 v56.713 l7.159,3.749 v45.328 l-7.159,7.636 v56.714 l4.712,5.703 v44.813 l-4.712,6.198 v56.713 l3.982,6.025 v41.894 l-3.982,8.795 v50.51 c0,3.426 2.778,6.204 6.204,6.204 h50.51 l4.787,-2.839 h46.015 l5.911,2.839 h56.713 l4.337,-3.869 h48.59 l3.787,3.869 h56.713 l5.26,-2.495 h44.298 l7.156,2.495 h56.713 l11.505,-6.444 z" fill="#dbedff" id="svg_21" class=""/><path d="m87.229863986969,199.97093008613587 h56.713 v56.713 h-56.713 z" fill="#407093" id="svg_23" class=""/><path d="m200.655863986969,199.97093008613587 h56.713 v56.713 h-56.713 z" fill="#407093" id="svg_24" class=""/><path d="m314.082863986969,199.97093008613587 h56.713 v56.713 h-56.713 z" fill="#407093" id="svg_25" class=""/><path d="m427.508863986969,199.97093008613587 h56.713 v56.713 h-56.713 z" fill="#407093" id="svg_26" class=""/><path d="m30.515863986968995,143.25793008613587 h56.713 v56.713 h-56.713 z" fill="#407093" id="svg_27" class="" fill-opacity="1"/><g fill="#407093" id="svg_28" class=""><path d="m143.942863986969,143.25793008613587 h56.713 v56.713 h-56.713 z" id="svg_29"/><path d="m257.369863986969,143.25793008613587 h56.713 v56.713 h-56.713 z" id="svg_30"/><path d="m370.795863986969,143.25793008613587 h56.713 v56.713 h-56.713 z" id="svg_31"/><path d="m87.229863986969,86.54493008613586 h56.713 v56.713 h-56.713 z" id="svg_32"/><path d="m200.655863986969,86.54493008613586 h56.713 v56.713 h-56.713 z" id="svg_33"/><path d="m314.082863986969,86.54493008613586 h56.713 v56.713 h-56.713 z" id="svg_34"/><path d="m427.508863986969,86.54493008613586 h56.713 v56.713 h-56.713 z" id="svg_35"/><path d="m143.942863986969,29.831930086135863 h56.713 v56.713 h-56.713 z" id="svg_36"/><path d="m257.369863986969,29.831930086135863 h56.713 v56.713 h-56.713 z" id="svg_37"/><path d="m370.795863986969,29.831930086135863 h56.713 v56.713 h-56.713 z" id="svg_38"/><path d="m87.229863986969,426.8239300861359 h56.713 v56.713 h-56.713 z" id="svg_39"/><path d="m200.655863986969,426.8239300861359 h56.713 v56.713 h-56.713 z" id="svg_40"/><path d="m314.082863986969,426.8239300861359 h56.713 v56.713 h-56.713 z" id="svg_41"/></g><path d="m30.516863986968993,35.922930086135864 v50.622 h56.713 v-56.713 h-50.622 c-3.364,0 -6.091,2.7270000000000003 -6.091,6.091 z" fill="#407093" id="svg_42" class="" fill-opacity="1"/><path d="m427.508863986969,426.8239300861359 v56.713 h50.621 c3.364,0 6.092,-2.7270000000000003 6.092,-6.092 v-50.621 z" fill="#407093" id="svg_43" class=""/><path d="m30.515863986968995,370.11093008613585 h56.713 v56.713 h-56.713 z" fill="#407093" id="svg_44" class="" fill-opacity="1"/><path d="m143.942863986969,370.11093008613585 h56.713 v56.713 h-56.713 z" fill="#407093" id="svg_45" class=""/><path d="m257.369863986969,370.11093008613585 h56.713 v56.713 h-56.713 z" fill="#407093" id="svg_46" class=""/><path d="m370.795863986969,370.11093008613585 h56.713 v56.713 h-56.713 z" fill="#407093" id="svg_47" class=""/><path d="m87.229863986969,313.3979300861359 h56.713 v56.713 h-56.713 z" fill="#407093" id="svg_48" class=""/><path d="m200.655863986969,313.3979300861359 h56.713 v56.713 h-56.713 z" fill="#407093" id="svg_53" class=""/><path d="m314.082863986969,313.3979300861359 h56.713 v56.713 h-56.713 z" fill="#407093" id="svg_54" class=""/><path d="m427.508863986969,313.3979300861359 h56.713 v56.713 h-56.713 z" fill="#407093" id="svg_55" class=""/><path d="m30.515863986968995,256.68493008613586 h56.713 v56.713 h-56.713 z" fill="#407093" id="svg_56" class="" fill-opacity="1"/><path d="m143.942863986969,256.68493008613586 h56.713 v56.713 h-56.713 z" fill="#407093" id="svg_57" class=""/><path d="m257.369863986969,256.68493008613586 h56.713 v56.713 h-56.713 z" fill="#407093" id="svg_58" class=""/><path d="m370.795863986969,256.68493008613586 h56.713 v56.713 h-56.713 z" fill="#407093" id="svg_59" class=""/></g></svg>