<svg id="Capa_1" enable-background="new 0 0 512 512" height="512" viewBox="0 0 512 512" width="512" xmlns="http://www.w3.org/2000/svg"><g><path d="m231.408 325.599 1.959 3.041h43.711l3.515-3.041c.037-7.143.281-14.293.787-21.439l.752-10.616-2.33-2.81h-47.533l-2.401 2.81.752 10.616c.507 7.145.751 14.295.788 21.439z" fill="#2b4d66"/><path d="m229.868 293.544.752 10.616c.506 7.146.751 14.296.787 21.439l1.959 3.042h28.35c.248-21.704-.836-36.044-.836-36.044l-1.584-1.863h-27.028z" fill="#25475b"/><g><path d="m256 177.808c-4.074 0-7.377-3.303-7.377-7.377v-58.527c0-4.074 3.303-7.377 7.377-7.377s7.377 3.303 7.377 7.377v58.527c.001 4.074-3.302 7.377-7.377 7.377z" fill="#365e7d"/></g><g><path d="m281.64 144.921h-51.279c-4.074 0-7.377-3.303-7.377-7.377s3.303-7.377 7.377-7.377h51.279c4.074 0 7.377 3.303 7.377 7.377s-3.303 7.377-7.377 7.377z" fill="#365e7d"/></g><path d="m307.123 264.541h-64.081l-1.667 1.32v1.063c0 12.525 7.912 23.159 18.681 26.601h24.492c14.125 0 25.681-11.557 25.681-25.681v-.982z" fill="#365e7d"/><path d="m241.72 267.138v-1.044l1.962-1.553h-38.796l-3.113 2.32v.982c0 14.124 11.557 25.681 25.681 25.681h33.394c-10.978-3.103-19.128-13.78-19.128-26.386z" fill="#2b4d66"/><path d="m287.918 165.855c-9.447 0-54.404 0-63.836 0-24.812 0-40.258 27.019-27.573 48.343 4.048 6.804 7.311 14.057 9.176 21.575l1.529 3.045h97.242l1.858-3.045c1.865-7.518 5.128-14.771 9.176-21.575 12.687-21.323-2.76-48.343-27.572-48.343z" fill="#4a80aa"/><path d="m238.447 214.199c-12.686-21.324 2.76-48.343 27.573-48.343-16.299 0-36.047 0-41.937 0-24.812 0-40.258 27.019-27.573 48.343 4.048 6.804 7.311 14.057 9.176 21.575l1.529 3.045h41.937l-1.529-3.045c-1.865-7.518-5.128-14.772-9.176-21.575z" fill="#407093"/><path d="m314.777 235.774h-72.05c-5.59 1.16-9.825 6.139-9.825 12.06v6.968c0 5.921 4.235 10.9 9.825 12.06h72.05c6.664 0 12.116-5.452 12.116-12.116v-6.855c0-6.665-5.452-12.117-12.116-12.117z" fill="#407093"/><path d="m233.101 254.745v-6.855c0-6.664 5.452-12.116 12.116-12.116h-47.994c-6.664 0-12.116 5.452-12.116 12.116v6.855c0 6.664 5.452 12.116 12.116 12.116h47.994c-6.663 0-12.116-5.452-12.116-12.116z" fill="#365e7d"/><path d="m221.52 407c11.079 2.562 22.621 3.918 34.48 3.918s23.4-1.355 34.48-3.918c-6.699-26.51-10.028-53.895-9.888-81.402h-49.185c.141 27.507-3.187 54.892-9.887 81.402z" fill="#365e7d"/><path d="m221.52 407c10.514 2.432 21.447 3.764 32.669 3.895 5.887-31.549 7.418-62.831 7.554-85.296h-30.336c.141 27.506-3.187 54.891-9.887 81.401z" fill="#2b4d66"/><path d="m503.84 221.233h-35.401c-3.897 0-7.229-2.761-7.997-6.581-5.407-26.888-15.975-51.906-30.642-73.97-2.158-3.247-1.757-7.556 1-10.313l25.035-25.035c3.187-3.187 3.187-8.354 0-11.54l-37.627-37.627c-3.187-3.187-8.354-3.187-11.541 0l-25.035 25.034c-2.757 2.757-7.066 3.159-10.313 1-22.063-14.667-47.082-25.236-73.969-30.642-3.82-.768-6.581-4.101-6.581-7.997v-35.402c0-4.507-3.653-8.16-8.16-8.16h-53.213c-4.507 0-8.16 3.654-8.16 8.16v35.401c0 3.897-2.761 7.229-6.581 7.997-26.888 5.407-51.906 15.976-73.97 30.642-3.247 2.159-7.556 1.757-10.313-1l-25.034-25.034c-3.187-3.187-8.354-3.187-11.541 0l-37.63 37.628c-3.187 3.187-3.187 8.354 0 11.54l25.034 25.034c2.757 2.757 3.159 7.066 1 10.314-14.667 22.063-25.235 47.082-30.642 73.97-.768 3.82-4.101 6.581-7.997 6.581h-35.401c-4.507 0-8.16 3.654-8.16 8.16v53.213c0 4.507 3.654 8.16 8.16 8.16h35.401c3.897 0 7.229 2.761 7.997 6.581 5.407 26.888 15.976 51.907 30.642 73.97 2.159 3.247 1.757 7.556-1 10.313l-25.034 25.034c-3.187 3.187-3.187 8.354 0 11.54l37.627 37.627c3.187 3.187 8.354 3.187 11.541 0l25.034-25.034c2.757-2.757 7.066-3.159 10.313-1 22.063 14.667 47.082 25.235 73.97 30.642 3.82.768 6.581 4.101 6.581 7.997v35.401c0 4.507 3.653 8.16 8.16 8.16h53.213c4.507 0 8.16-3.654 8.16-8.16v-35.401c0-3.897 2.761-7.229 6.581-7.997 26.887-5.407 51.906-15.976 73.97-30.642 3.247-2.159 7.556-1.757 10.313 1l25.034 25.034c3.187 3.187 8.354 3.187 11.541 0l37.627-37.627c3.187-3.187 3.187-8.354 0-11.54l-25.035-25.034c-2.757-2.757-3.158-7.066-1-10.313 14.667-22.063 25.235-47.082 30.642-73.97.769-3.82 4.101-6.581 7.997-6.581h35.401c4.507 0 8.16-3.654 8.16-8.16v-53.213c.003-4.506-3.65-8.16-8.157-8.16zm-247.84 185.689c-83.352 0-150.922-67.57-150.922-150.922s67.571-150.921 150.922-150.921 150.922 67.57 150.922 150.921-67.57 150.922-150.922 150.922z" fill="#dbedff"/><g><path d="m109.473 292.253c-2.864-11.614-4.394-23.754-4.394-36.253s1.53-24.638 4.394-36.253c9.569-67.493 45.451-126.51 96.941-166.342-23.764 5.794-45.939 15.639-65.731 28.796-3.247 2.159-7.556 1.757-10.313-1l-25.034-25.034c-3.187-3.187-8.354-3.187-11.541 0l-37.628 37.627c-3.187 3.187-3.187 8.354 0 11.54l25.034 25.034c2.757 2.757 3.159 7.066 1 10.314-14.667 22.063-25.235 47.082-30.642 73.97-.768 3.82-4.101 6.581-7.997 6.581h-35.401c-4.507 0-8.16 3.654-8.16 8.16v53.213c0 4.507 3.654 8.16 8.16 8.16h35.401c3.897 0 7.229 2.761 7.997 6.581 5.407 26.888 15.976 51.907 30.642 73.97 2.159 3.247 1.757 7.556-1 10.313l-25.034 25.034c-3.187 3.187-3.187 8.354 0 11.54l37.627 37.627c3.187 3.187 8.354 3.187 11.541 0l25.034-25.034c2.757-2.757 7.066-3.159 10.313-1 19.792 13.157 41.967 23.002 65.731 28.796-51.489-39.829-87.371-98.847-96.94-166.34z" fill="#b5dcff"/></g></g></svg>