<svg id="Capa_1" enable-background="new 0 0 512 512" height="512" viewBox="0 0 512 512" width="512" xmlns="http://www.w3.org/2000/svg"><g><g><path d="m459.21 512h-218.29c-8.689 0-15.733-7.044-15.733-15.733v-10.16c0-8.689 7.044-15.733 15.733-15.733h218.29c8.689 0 15.733 7.044 15.733 15.733v10.16c0 8.689-7.044 15.733-15.733 15.733z" fill="#5e54ac"/><path d="m459.21 470.374h-46.829c8.689 0 15.733 7.044 15.733 15.733v10.16c0 8.689-7.044 15.733-15.733 15.733h46.829c8.689 0 15.733-7.044 15.733-15.733v-10.16c0-8.689-7.044-15.733-15.733-15.733z" fill="#524798"/><path d="m429.925 470.374h-159.72c-7.621 0-13.799-6.178-13.799-13.799v-14.028c0-7.621 6.178-13.799 13.799-13.799h159.719c7.621 0 13.799 6.178 13.799 13.799v14.028c.001 7.621-6.177 13.799-13.798 13.799z" fill="#8078bc"/><path d="m429.925 428.748h-35.382c7.621 0 13.799 6.178 13.799 13.799v14.028c0 7.621-6.178 13.799-13.799 13.799h35.382c7.621 0 13.799-6.178 13.799-13.799v-14.028c0-7.621-6.178-13.799-13.799-13.799z" fill="#6b61b1"/><path d="m400.016 191.48h-99.902c-9.196 0-16.65 7.455-16.65 16.65 0 9.196 7.455 16.65 16.65 16.65h99.902c9.196 0 16.65-7.455 16.65-16.65.001-9.196-7.454-16.65-16.65-16.65z" fill="#5e54ac"/><path d="m400.016 224.78h-29.138c9.196 0 16.65-7.455 16.65-16.65 0-9.196-7.455-16.65-16.65-16.65h29.138c9.196 0 16.65 7.455 16.65 16.65.001 9.196-7.454 16.65-16.65 16.65z" fill="#524798"/><path d="m422.911 224.78h-145.691c-5.747 0-10.406 4.659-10.406 10.407v12.488c0 5.747 4.659 10.407 10.406 10.407h145.691c5.747 0 10.406-4.659 10.406-10.407v-12.488c0-5.747-4.659-10.407-10.406-10.407z" fill="#8078bc"/><path d="m422.911 258.081h-33.301c5.747 0 10.407-4.659 10.407-10.407v-12.488c0-5.747-4.659-10.407-10.407-10.407h33.301c5.747 0 10.406 4.659 10.406 10.407v12.488c0 5.748-4.659 10.407-10.406 10.407z" fill="#6b61b1"/><path d="m408.341 428.748-14.569-170.667h-87.414l-14.569 170.667z" fill="#5e54ac"/><circle cx="350.065" cy="139.447" fill="#5e54ac" r="52.033"/><g fill="#524798"><path d="m376.276 94.505c4.5 7.699 7.09 16.65 7.09 26.211 0 28.737-23.296 52.033-52.033 52.033-9.561 0-18.512-2.59-26.211-7.09 9.025 15.441 25.767 25.822 44.942 25.822 28.737 0 52.033-23.296 52.033-52.033.001-19.177-10.38-35.918-25.821-44.943z"/><path d="m397.815 305.434c-2.508 54.767-44.358 98.338-95.619 98.338-2.777 0-5.524-.135-8.241-.386l-2.165 25.362h116.553z"/></g></g><g><circle cx="172.341" cy="32.26" fill="#f9efda" r="32.26"/><path d="m187.596 3.831c2.442 4.542 3.831 9.736 3.831 15.254 0 17.817-14.443 32.26-32.26 32.26-5.519 0-10.712-1.388-15.254-3.831 5.443 10.123 16.131 17.006 28.429 17.006 17.817 0 32.26-14.443 32.26-32.26 0-12.298-6.884-22.986-17.006-28.429z" fill="#f6e4c1"/><path d="m218.13 124.878 19.213-38.426c1.052-2.104 1.6-4.425 1.6-6.777 0-8.369-6.785-15.154-15.154-15.154h-102.895c-8.369 0-15.154 6.785-15.154 15.154 0 2.353.548 4.673 1.6 6.777l19.213 38.426z" fill="#f9efda"/><path d="m223.789 64.52h-19.772c8.369 0 15.154 6.785 15.154 15.154 0 2.353-.548 4.673-1.6 6.777l-19.213 38.426h19.772l19.213-38.426c1.052-2.104 1.6-4.425 1.6-6.777 0-8.369-6.785-15.154-15.154-15.154z" fill="#f6e4c1"/><path d="m222.293 158.179h-99.903c-9.196 0-16.65-7.455-16.65-16.65 0-9.196 7.455-16.65 16.65-16.65h99.902c9.196 0 16.65 7.455 16.65 16.65.001 9.195-7.454 16.65-16.649 16.65z" fill="#f1cb86"/><path d="m222.293 224.78h-99.903c-9.196 0-16.65-7.455-16.65-16.65 0-9.196 7.455-16.65 16.65-16.65h99.902c9.196 0 16.65 7.455 16.65 16.65.001 9.196-7.454 16.65-16.649 16.65z" fill="#f1cb86"/><path d="m222.293 124.878h-29.138c9.196 0 16.65 7.455 16.65 16.65 0 9.196-7.455 16.65-16.65 16.65h29.138c9.196 0 16.65-7.455 16.65-16.65 0-9.195-7.455-16.65-16.65-16.65z" fill="#ecbe6b"/><path d="m222.293 191.48h-29.138c9.196 0 16.65 7.455 16.65 16.65 0 9.196-7.455 16.65-16.65 16.65h29.138c9.196 0 16.65-7.455 16.65-16.65 0-9.196-7.455-16.65-16.65-16.65z" fill="#ecbe6b"/><path d="m245.187 191.48h-145.691c-5.747 0-10.407-4.659-10.407-10.407v-12.488c0-5.747 4.659-10.407 10.407-10.407h145.691c5.747 0 10.406 4.659 10.406 10.407v12.488c0 5.748-4.659 10.407-10.406 10.407z" fill="#f9efda"/><path d="m245.187 158.179h-33.301c5.747 0 10.406 4.659 10.406 10.407v12.488c0 5.747-4.659 10.407-10.406 10.407h33.301c5.747 0 10.406-4.659 10.406-10.407v-12.488c0-5.748-4.659-10.407-10.406-10.407z" fill="#f6e4c1"/><path d="m291.893 512h-239.103c-8.689 0-15.733-7.044-15.733-15.733v-10.16c0-8.689 7.044-15.733 15.733-15.733h239.103c8.689 0 15.733 7.044 15.733 15.733v10.16c0 8.689-7.044 15.733-15.733 15.733z" fill="#eab14d"/><path d="m291.893 470.374h-46.829c8.689 0 15.733 7.044 15.733 15.733v10.16c0 8.689-7.044 15.733-15.733 15.733h46.829c8.689 0 15.733-7.044 15.733-15.733v-10.16c0-8.689-7.044-15.733-15.733-15.733z" fill="#e7a52e"/><path d="m252.125 428.748-22.356-67.067c-4.952-14.856-7.476-30.412-7.476-46.072v-90.829h-49.951-49.952v90.829c0 15.659-2.525 31.216-7.476 46.072l-22.356 67.067z" fill="#f9efda"/><path d="m262.608 470.374h-180.533c-7.621 0-13.799-6.178-13.799-13.799v-14.028c0-7.621 6.178-13.799 13.799-13.799h180.532c7.621 0 13.799 6.178 13.799 13.799v14.028c0 7.621-6.177 13.799-13.798 13.799z" fill="#f1cb86"/><path d="m262.608 428.748h-35.382c7.621 0 13.799 6.178 13.799 13.799v14.028c0 7.621-6.178 13.799-13.799 13.799h35.382c7.621 0 13.799-6.178 13.799-13.799v-14.028c-.001-7.621-6.178-13.799-13.799-13.799z" fill="#ecbe6b"/><path d="m229.769 361.681c-4.952-14.856-7.476-30.412-7.476-46.072v-18.526c-14.505 64.845-57.706 111.892-108.748 111.892-4.739 0-9.409-.413-13.996-1.2l-6.991 20.973h159.567z" fill="#f6e4c1"/></g></g></svg>