<svg height="512pt" viewBox="0 0 512 512" width="512pt" xmlns="http://www.w3.org/2000/svg" xmlns:xlink="http://www.w3.org/1999/xlink"><linearGradient id="a" gradientUnits="userSpaceOnUse" x1="0" x2="512" y1="256" y2="256"><stop offset="0" stop-color="#00f1ff"/><stop offset=".231" stop-color="#00d8ff"/><stop offset=".5138" stop-color="#00c0ff"/><stop offset=".7773" stop-color="#00b2ff"/><stop offset="1" stop-color="#00adff"/></linearGradient><path d="m512 256c0 141.386719-114.613281 256-256 256s-256-114.613281-256-256 114.613281-256 256-256 256 114.613281 256 256zm0 0" fill="url(#a)"/><path d="m373.113281 377.714844h-7.058593c1.039062-3.625 1.605468-7.441406 1.605468-11.394532 0-22.824218-18.566406-41.390624-41.390625-41.390624h-2.523437c-3.4375-8.195313-6.421875-16.960938-9.050782-26.570313-2.183593-7.988281-10.429687-12.703125-18.425781-10.507813-7.992187 2.1875-12.695312 10.4375-10.511719 18.425782 1.785157 6.523437 3.730469 12.707031 5.847657 18.652344h-71.847657c11.398438-31.960938 16.289063-67.34375 20.121094-107.898438h31.574219c.917969 9.78125 1.855469 18.8125 2.933594 27.710938.996093 8.226562 8.464843 14.085937 16.695312 13.085937 8.226563-.996094 14.082031-8.46875 13.085938-16.695313-.9375-7.746093-1.769531-15.640624-2.578125-24.101562h7.523437c8.285157 0 15-6.71875 15-15 0-8.285156-6.714843-15-15-15h-.625c4.855469-10.078125 9.332031-23.5625 9.683594-39.429688.089844-4.035156-1.449219-7.9375-4.269531-10.824218-2.824219-2.882813-6.6875-4.511719-10.726563-4.511719h-32.503906v-16.84375h4.792969c8.28125 0 15-6.71875 15-15 0-8.285156-6.71875-15-15-15h-4.792969v-4.136719c0-8.28125-6.71875-15-15-15-8.285156 0-15 6.71875-15 15v4.136719h-4.796875c-8.28125 0-15 6.714844-15 15 0 8.28125 6.71875 15 15 15h4.796875v16.84375h-32.507813c-4.035156 0-7.902343 1.628906-10.722656 4.511719-2.824218 2.886718-4.363281 6.789062-4.273437 10.824218.351562 15.886719 4.839843 29.382813 9.699219 39.460938-7.964844.359375-14.320313 6.910156-14.320313 14.96875 0 8.28125 6.714844 15 15 15h6.195313c-4.015626 41.667969-9.296876 77.234375-22.152344 107.898438h-1.859375c-22.824219 0-41.390625 18.566406-41.390625 41.390624 0 3.953126.566406 7.769532 1.605468 11.394532h-7.0625c-8.28125 0-15 6.714844-15 15 0 8.28125 6.71875 15 15 15h234.230469c8.285157 0 15-6.71875 15-15 0-8.285156-6.714843-15-15-15zm-87.21875-215.445313c-4.105469 14.890625-12.285156 24.382813-12.34375 24.449219-.089843.101562-.167969.210938-.257812.3125h-35.253907c-.085937-.101562-.160156-.210938-.25-.3125-.109374-.121094-8.265624-9.558594-12.359374-24.449219zm-111.554687 204.050781c0-6.28125 5.109375-11.390624 11.390625-11.390624h140.539062c6.28125 0 11.390625 5.109374 11.390625 11.390624s-5.109375 11.394532-11.390625 11.394532h-140.539062c-6.28125 0-11.390625-5.113282-11.390625-11.394532zm0 0" fill="#fff"/></svg>