<svg id="Capa_1" enable-background="new 0 0 512 512" height="512" viewBox="0 0 512 512" width="512" xmlns="http://www.w3.org/2000/svg"><g><path d="m317.778 412.934-4.441-1.991h-112.289l-5.59 1.991-30.128 66.133 1.55 3.474h177.191l2.599-3.474z" fill="#b5dcff"/><path d="m250.573 412.934 5.589-1.991h-55.114l-5.59 1.991-30.128 66.133 1.55 3.474h55.115l-1.551-3.474z" fill="#8bcaff"/><path d="m464.964 0h-417.927c-13.686 0-24.779 11.094-24.779 24.779v363.376c0 13.685 11.094 24.778 24.778 24.778h417.928c13.685 0 24.778-11.094 24.778-24.778 0-9.757 0-348.423 0-363.377 0-13.684-11.093-24.778-24.778-24.778z" fill="#dbedff"/><path d="m65.525 388.155v-363.376c0-13.685 11.094-24.779 24.779-24.779h-43.267c-13.686 0-24.779 11.094-24.779 24.779v363.376c0 13.685 11.094 24.778 24.778 24.778h43.267c-13.684.001-24.778-11.093-24.778-24.778z" fill="#b5dcff"/><path d="m450.059 32.933h-388.118c-3.728 0-6.75 3.022-6.75 6.75v333.568c0 3.728 3.022 6.75 6.75 6.75h388.118c3.728 0 6.75-3.022 6.75-6.75v-333.568c0-3.728-3.022-6.75-6.75-6.75z" fill="#ffe07d"/><path d="m98.459 373.251v-333.568c0-3.728 3.022-6.75 6.749-6.75h-43.267c-3.728 0-6.749 3.022-6.749 6.75v333.568c0 3.728 3.022 6.75 6.749 6.75h43.267c-3.727-.001-6.749-3.023-6.749-6.75z" fill="#ffd064"/><path d="m362.07 479.067h-212.139c-4.793 0-8.678 3.885-8.678 8.678v15.577c0 4.793 3.885 8.678 8.678 8.678h212.139c4.793 0 8.678-3.885 8.678-8.678v-15.577c0-4.793-3.886-8.678-8.678-8.678z" fill="#dbedff"/><path d="m196.367 503.322v-15.577c0-4.793 3.885-8.678 8.678-8.678h-55.115c-4.793 0-8.678 3.885-8.678 8.678v15.577c0 4.793 3.885 8.678 8.678 8.678h55.114c-4.792 0-8.677-3.885-8.677-8.678z" fill="#b5dcff"/><g><path d="m315.165 293.427c-1.751-9.914-10.471-17.077-20.538-17.077-.718 0-4.45 0-9.908 0l-1.326-1.781h-50.869l-1.435 1.781c-7.498 0-12.841 0-13.716 0-10.067 0-18.787 7.163-20.538 17.077-1.335 7.561-5.754 16.359-17.313 23.588l1.367 1.4h150.221l1.367-1.4c-11.558-7.228-15.977-16.026-17.312-23.588z" fill="#365e7d"/><path d="m240.051 293.427c1.751-9.914 10.471-17.077 20.538-17.077h13.716l1.435-1.781h-43.216l-1.435 1.781c-7.498 0-12.841 0-13.716 0-10.067 0-18.787 7.163-20.538 17.077-1.335 7.561-5.754 16.359-17.313 23.588l1.367 1.4h43.216l-1.367-1.4c11.559-7.228 15.978-16.026 17.313-23.588z" fill="#2b4d66"/><path d="m284.201 276.35c12.76-.045 23.004-10.91 22.311-23.652-.702-12.902 1.474-25.916 6.54-38.06 13.614-32.638 27.691-85.053-1.359-120.839-32.323-39.818-87.364-27.154-106.106-26.703-2.983.072-4.648 3.47-2.873 5.869l10.157 13.726c2.356 3.184 2.371 7.53.037 10.731l-7.549 10.349c-2.009 2.754-3.396 5.912-4.065 9.255l-.698 3.492c-.87 4.35-2.952 8.366-6.006 11.585l-21.112 22.253c-4.489 4.731-3.286 12.429 2.431 15.567l3.217 1.765c3.035 1.666 6.533 2.291 9.958 1.78l9.515-1.42c1.2-.179 2.182.667 2.182 1.88 0 1.91 2.12 3.058 3.72 2.013l16.165-10.563c3.298-2.155 7.155-3.261 11.094-3.275 4.701-.016 11.765-1.138 18.055-6.564 3.181-2.744 8.21-1.005 9.041 3.112 2.073 10.27-1.017 28.185-34.878 47.616-16.2 9.296-25.107 27.794-21.69 46.157.015.081.03.162.046.242 2.656 13.835 14.933 23.733 29.021 23.683h52.846z" fill="#407093"/><path d="m335.301 317.015h-158.602c-6.664 0-12.116 5.452-12.116 12.116v6.855c0 6.663 5.452 12.116 12.116 12.116h158.602c6.664 0 12.116-5.452 12.116-12.116v-6.855c-.001-6.664-5.453-12.116-12.116-12.116z" fill="#407093"/><g fill="#365e7d"><path d="m207.8 335.985v-6.855c0-6.664 5.452-12.115 12.115-12.115h-43.216c-6.664 0-12.115 5.452-12.115 12.115v6.855c0 6.663 5.452 12.116 12.115 12.116h43.216c-6.664 0-12.115-5.452-12.115-12.116z"/><path d="m204.5 175.941 5.804-3.792c-.312-.146-.623-.294-.926-.46l-3.217-1.765c-5.717-3.138-6.919-10.836-2.431-15.567l21.112-22.253c3.054-3.219 5.136-7.234 6.006-11.585l.698-3.491c.669-3.344 2.056-6.502 4.065-9.256l7.549-10.349c2.334-3.2 2.319-7.546-.037-10.73l-12.318-16.967c-1.106-1.495-.876-3.377.176-4.601-10.701.58-19.715 1.836-25.393 1.973-2.983.072-4.648 3.47-2.873 5.869l10.157 13.726c2.356 3.184 2.371 7.53.037 10.73l-7.549 10.349c-2.009 2.754-3.396 5.912-4.065 9.255l-.698 3.492c-.87 4.35-2.952 8.366-6.005 11.585l-21.112 22.253c-4.489 4.731-3.286 12.429 2.431 15.567l3.217 1.765c3.036 1.666 6.533 2.291 9.958 1.78l9.515-1.42c1.2-.179 2.182.667 2.182 1.88-.003 1.91 2.118 3.057 3.717 2.012z"/><path d="m232.586 252.667c-.015-.081-.031-.161-.046-.242-3.417-18.363 5.49-36.861 21.69-46.157 20.125-11.549 35.197-25.395 35.256-43.119.031-9.403-10.655-14.896-18.426-9.601l-11.793 8.034c.863 10.552-4.448 26.989-35.288 44.686-16.2 9.296-25.107 27.794-21.69 46.157.015.081.031.162.046.242 2.656 13.835 14.933 23.733 29.021 23.683h30.25c-14.088.05-26.364-9.848-29.02-23.683z"/></g><g><path d="m230.02 133.695c-2.829 0-5.576-1.483-7.065-4.123-2.199-3.897-.822-8.84 3.076-11.039l10.327-5.827c3.897-2.198 8.84-.821 11.039 3.076s.822 8.84-3.076 11.039l-10.327 5.827c-1.257.709-2.625 1.047-3.974 1.047z" fill="#2b4d66"/></g></g></g></svg>