<svg id="Layer_1" enable-background="new 0 0 512 512" height="512" viewBox="0 0 512 512" width="512" xmlns="http://www.w3.org/2000/svg"><g><g><g><g id="XMLID_1691_"><g id="XMLID_1692_"><g id="XMLID_1693_"><g id="XMLID_1694_"><g id="XMLID_1695_"><g id="XMLID_1756_"><g id="XMLID_1757_"><g id="XMLID_1758_"><g id="XMLID_1759_"><g id="XMLID_1760_"><g id="XMLID_1761_"><g id="XMLID_1762_"><g id="XMLID_1763_"><g id="XMLID_2823_"><g id="XMLID_3416_"><circle cx="256" cy="256" fill="#ff4d05" r="256"/></g></g></g></g></g></g></g></g></g></g></g></g></g></g></g></g></g><path d="m511.527 271.374-212.258-212.259-122.225 124.346 46 46.371c-2.376 39.843-111.682 209.439-111.682 209.439l57.51 57.51c27.198 9.843 56.534 15.219 87.128 15.219 136.221 0 247.575-106.401 255.527-240.626z" fill="#c30047"/><g><g><circle cx="256" cy="93.233" fill="#fff" r="55.115"/><path d="m311.124 93.239c0 30.43-24.676 55.106-55.124 55.106v-110.23c30.448 0 55.124 24.676 55.124 55.124z" fill="#f1f4f6"/><g><path d="m327.942 288.083c-12.557-31.098-26.077-39.263-26.077-92.312v-42.874h-91.731v42.874c0 53.049-13.52 61.214-26.077 92.312-8.051 19.931-12.167 41.349-12.167 49.657h168.217c.002-8.308-4.114-29.726-12.165-49.657z" fill="#fff"/><path d="m340.109 337.74h-84.109v-184.843h45.865v42.874c0 53.049 13.52 61.214 26.077 92.312 8.051 19.931 12.167 41.349 12.167 49.657z" fill="#f1f4f6"/><path d="m177.044 122.34h157.911v61.121h-157.911z" fill="#daeaec"/><path d="m256 122.333h78.952v61.125h-78.952z" fill="#cedfe2"/><g><path d="m132.885 333.904h246.231v85.217h-246.231z" fill="#daeaec"/><path d="m256 333.904h123.115v85.217h-123.115z" fill="#cedfe2"/></g></g></g><path d="m111.363 387.487h289.275v51.784h-289.275z" fill="#f1f4f6"/><g><path d="m256 387.485h144.637v51.783h-144.637z" fill="#daeaec"/></g></g></g></svg>