<svg viewBox="0 -8 511.99978 511" xmlns="http://www.w3.org/2000/svg" xmlns:xlink="http://www.w3.org/1999/xlink"><linearGradient id="a" gradientUnits="userSpaceOnUse" x1="0" x2="511.99823976" y1="247.98111988" y2="247.98111988"><stop offset="0" stop-color="#00f2fe"/><stop offset=".0208" stop-color="#03effe"/><stop offset=".2931" stop-color="#24d2fe"/><stop offset=".5538" stop-color="#3cbdfe"/><stop offset=".7956" stop-color="#4ab0fe"/><stop offset="1" stop-color="#4facfe"/></linearGradient><path d="m184.78125 495.460938c-7.414062 0-14.824219-2.285157-21.160156-6.859376-.042969-.03125-.089844-.0625-.132813-.09375l-35.496093-26.074218-35.5 26.074218c-.042969.03125-.085938.0625-.132813.09375-12.730469 9.191407-29.800781 9.144532-42.480469-.117187-12.8125-9.355469-17.90625-25.125-12.984375-40.183594l13.542969-41.414062-35.496094-25.625c-12.742187-9.199219-18.023437-25.523438-13.144531-40.617188 4.859375-15.035156 18.644531-25.136719 34.304687-25.136719h44.207032l13.363281-41.136718c4.867187-14.886719 18.652344-24.867188 34.316406-24.867188 15.664063 0 29.449219 9.980469 34.308594 24.828125l13.375 41.175781h44.207031c15.65625 0 29.441406 10.101563 34.304688 25.136719 4.878906 15.09375-.402344 31.417969-13.144532 40.617188l-35.496093 25.625 13.542969 41.417969c4.921874 15.054687-.171876 30.824218-12.984376 40.179687-6.367187 4.652344-13.84375 6.976563-21.320312 6.976563zm-56.789062-73.953126c7.644531 0 14.964843 2.367188 21.160156 6.839844.042968.03125.085937.0625.128906.09375l27.933594 20.515625-10.617188-32.476562c-4.875-14.910157.40625-31.105469 13.144532-40.300781l28.632812-20.671876h-35.320312c-15.789063 0-29.574219-9.726562-34.308594-24.203124l-10.753906-33.105469-10.746094 33.070312c-4.742188 14.511719-18.527344 24.238281-34.316406 24.238281h-35.320313l28.632813 20.671876c12.738281 9.195312 18.019531 25.390624 13.144531 40.300781l-10.617188 32.476562 27.929688-20.515625c.046875-.03125.089843-.0625.132812-.09375 6.191407-4.472656 13.511719-6.839844 21.160157-6.839844zm312.792968 73.953126c-7.410156 0-14.820312-2.285157-21.160156-6.859376-.042969-.03125-.085938-.0625-.128906-.09375l-35.5-26.074218-35.496094 26.074218c-.046875.03125-.089844.0625-.132812.09375-12.730469 9.191407-29.804688 9.144532-42.484376-.117187-12.808593-9.355469-17.90625-25.125-12.980468-40.183594l13.542968-41.414062-35.5-25.625c-12.738281-9.199219-18.023437-25.523438-13.144531-40.617188 4.863281-15.035156 18.648438-25.136719 34.304688-25.136719h44.207031l13.367188-41.136718c4.867187-14.886719 18.652343-24.867188 34.316406-24.867188 15.664062 0 29.449218 9.980469 34.304687 24.828125l13.375 41.175781h44.207031c9.789063 0 18.898438 3.808594 25.644532 10.726563 6.898437 7.070313 10.710937 16.828125 10.460937 26.773437-.273437 11.042969-9.496093 19.773438-20.492187 19.496094-9.851563-.246094-17.863282-7.578125-19.28125-16.996094h-43.15625c-15.789063 0-29.574219-9.726562-34.304688-24.203124l-10.757812-33.105469-10.742188 33.070312c-4.746094 14.511719-18.53125 24.238281-34.320312 24.238281h-35.320313l28.632813 20.671876c12.738281 9.195312 18.019531 25.390624 13.144531 40.300781l-10.617187 32.476562 27.933593-20.515625.128907-.09375c6.195312-4.476562 13.515624-6.839844 21.164062-6.839844 7.644531 0 14.964844 2.367188 21.160156 6.839844.042969.03125.085938.0625.128906.09375l27.933594 20.515625-8.25-25.230469c-3.433594-10.5 2.296875-21.792968 12.796875-25.226562s21.792969 2.292969 25.226563 12.792969l12.097656 37.007812c4.925781 15.054688-.171875 30.828125-12.980469 40.183594-6.371093 4.652344-13.847656 6.976563-21.328125 6.976563zm31.214844-143.453126v.027344c0-.007812 0-.015625 0-.027344zm-159.21875-105.550781c-7.410156 0-14.820312-2.285156-21.15625-6.859375-.046875-.03125-.089844-.066406-.132812-.097656l-35.5-26.070312-35.496094 26.070312c-.042969.03125-.089844.066406-.132813.097656-12.730469 9.1875-29.804687 9.140625-42.484375-.121094-12.808594-9.351562-17.902344-25.125-12.980468-40.179687l13.542968-41.417969-35.496094-25.625c-12.742187-9.199218-18.023437-25.519531-13.144531-40.617187 4.859375-15.035157 18.644531-25.136719 34.304688-25.136719h44.207031l13.363281-41.136719c4.867188-14.886719 18.652344-24.863281 34.316407-24.863281 15.664062 0 29.449218 9.976562 34.304687 24.828125l13.378906 41.171875h44.207031c15.65625 0 29.441407 10.105469 34.304688 25.136719 4.878906 15.09375-.402344 31.417969-13.144531 40.617187l-35.496094 25.625 13.542969 41.417969c4.921875 15.054687-.175782 30.828125-12.984375 40.179687-6.367188 4.652344-13.84375 6.980469-21.324219 6.980469zm-56.789062-73.953125c7.648437 0 14.964843 2.363282 21.160156 6.835938.046875.03125.089844.0625.132812.097656l27.933594 20.515625-10.621094-32.480469c-4.875-14.90625.410156-31.105468 13.148438-40.296875l28.632812-20.671875h-35.324218c-15.785157 0-29.570313-9.726562-34.304688-24.207031l-10.757812-33.105469-10.742188 33.074219c-4.742188 14.511719-18.53125 24.238281-34.316406 24.238281h-35.320313l28.632813 20.671875c12.734375 9.191407 18.019531 25.390625 13.144531 40.296875l-10.621094 32.480469 27.933594-20.515625c.042969-.035156.085937-.066406.132813-.097656 6.191406-4.472656 13.511718-6.835938 21.15625-6.835938zm91.890624-66h.007813zm0 0" fill="url(#a)"/></svg>