<svg viewBox="0 0 512 512" xmlns="http://www.w3.org/2000/svg" xmlns:xlink="http://www.w3.org/1999/xlink"><linearGradient id="a" gradientUnits="userSpaceOnUse" x1=".001" x2="511.998" y1="256" y2="256"><stop offset="0" stop-color="#00f2fe"/><stop offset=".0208" stop-color="#03effe"/><stop offset=".2931" stop-color="#24d2fe"/><stop offset=".5538" stop-color="#3cbdfe"/><stop offset=".7956" stop-color="#4ab0fe"/><stop offset="1" stop-color="#4facfe"/></linearGradient><path d="m501.25 370.789062-38.019531-38.019531c-7.8125-7.8125-20.476563-7.8125-28.285157 0-7.808593 7.808594-7.808593 20.472657 0 28.285157l31.96875 31.964843-53.816406.125c-11.011718.023438-19.929687 8.941407-19.953125 19.953125l-.125 53.921875-102.460937-102.289062c84.992187-16.21875 149.441406-91.082031 149.441406-180.730469 0-101.457031-82.542969-184-184-184s-184 82.542969-184 184c0 35.789062 10.28125 69.21875 28.03125 97.503906l-89.285156 89.285156c-6.992188 6.988282-10.8046878 16.207032-10.746094 25.953126.0625 9.84375 4.152344 19.4375 11.21875 26.328124 6.671875 6.503907 15.386719 9.933594 25.242188 9.933594.132812 0 .269531 0 .402343-.003906l42.035157.097656.097656 41.980469c-.085938 9.707031 3.46875 18.777344 10.019531 25.5625 6.882813 7.132813 16.476563 11.269531 26.324219 11.355469.105468.003906.210937.003906.320312.003906 9.609375 0 18.691406-3.796875 25.59375-10.699219l114.746094-114.554687 114.730469 114.546875c6.914062 6.910156 15.996093 10.707031 25.605469 10.707031h.320312c9.84375-.089844 19.441406-4.226562 26.324219-11.355469 6.550781-6.785156 10.101562-15.859375 10.019531-25.566406l.097656-41.980469 42.035156-.097656c.136719.003906.269532.003906.402344.003906 9.855469 0 18.570313-3.429687 25.242188-9.933594 7.066406-6.890624 11.15625-16.484374 11.21875-26.328124.0625-9.746094-3.753906-18.964844-10.746094-25.953126zm-245.25-330.789062c79.402344 0 144 64.597656 144 144s-64.597656 144-144 144-144-64.597656-144-144 64.597656-144 144-144zm-137.019531 427.019531-.125-53.921875c-.027344-11.011718-8.945313-19.929687-19.957031-19.953125l-53.816407-.125 79.933594-79.933593c25.6875 26.0625 59.070313 44.515624 96.421875 51.644531zm82.992187-356.511719c11.386719-18.476562 32.113282-29.507812 55.445313-29.507812.179687 0 .351562.023438.527343.027344.175782-.003906.347657-.027344.523438-.027344 35.582031 0 64.53125 28.855469 64.53125 64.324219 0 16.148437-7.480469 28.761719-16.117188 37.957031 9.007813 9.136719 16.117188 21.53125 16.117188 37.175781 0 34.855469-27.871094 63.304688-62.492188 64.28125-1.011718.15625-2.035156.261719-3.089843.261719-22.222657 0-43.464844-12.074219-55.441407-31.511719-5.792968-9.402343-2.867187-21.722656 6.539063-27.515625 9.402344-5.796875 21.722656-2.871094 27.515625 6.535156 4.375 7.097657 12.355469 11.976563 20.164062 12.445313.816407-.101563 1.640626-.171875 2.480469-.171875 13.414063 0 24.324219-10.910156 24.324219-24.320312 0-9.136719-13.855469-15.746094-16.003906-16.710938-9.617188-1.453125-16.996094-9.726562-16.996094-19.75 0-10.042969 7.40625-18.328125 17.050781-19.757812 6.347657-3.769532 15.949219-11.542969 15.949219-18.917969 0-13.1875-11.234375-24.324219-24.53125-24.324219-.175781 0-.347656-.023438-.523438-.027344-.175781.003906-.347656.027344-.527343.027344-9.207031 0-17.402344 4.019531-21.390625 10.492188-3.78125 6.132812-10.335938 9.511718-17.046875 9.511718-3.578125 0-7.203125-.960937-10.472657-2.976562-9.402343-5.792969-12.332031-18.117188-6.535156-27.519532zm0 0" fill="url(#a)"/></svg>