<svg id="Capa_1" enable-background="new 0 0 512 512" height="512" viewBox="0 0 512 512" width="512" xmlns="http://www.w3.org/2000/svg"><g><path d="m322.18 65.336-11.246-5.558h-1.041l-19.014 24.256c-2.628 3.353-7.906 2.57-9.448-1.401l-16.882-43.483-1.132-.813h-14.895l-1.07.813-16.883 43.484c-1.542 3.971-6.82 4.754-9.448 1.401l-19.014-24.256-1.939-.194-10.173 5.28-.928 1.705 13.772 51.172 3.188 2.667h99.756l3.378-2.667 13.772-51.172z" fill="#ffd064"/><path d="m235.996 68.654-5.428 13.979c-1.542 3.971-6.82 4.754-9.448 1.401l-19.014-24.256-1.939-.194-10.173 5.28-.928 1.705 13.772 51.172 3.188 2.667h41.214z" fill="#ffc250"/><path d="m318.862 119.296c-3.13-1.031-6.406-1.554-9.701-1.554h-106.322c-3.288 0-6.558.52-9.682 1.548-80.62 26.546-138.913 102.71-138.537 192.189.463 110.271 90.579 200.236 200.851 200.521 111.285.288 201.911-90.162 201.911-201.381 0-89.1-58.168-164.857-138.52-191.323z" fill="#8bcaff"/><path d="m118.745 311.479c-.375-89.479 57.917-165.643 138.537-192.189 3.124-1.029 6.394-1.548 9.682-1.548h-64.125c-3.288 0-6.558.52-9.682 1.548-80.62 26.546-138.913 102.71-138.537 192.189.463 110.271 90.579 200.236 200.851 200.521 11.104.029 21.999-.861 32.622-2.569-95.43-15.4-168.93-98.395-169.348-197.952z" fill="#60b9fe"/><path d="m275.738 168.552c-66.07 13.597-115.909 72.194-115.909 142.228 0 45.789 21.313 86.682 54.528 113.317v3.956h121.196l4.145-1.03c36.151-26.067 59.732-68.532 59.732-116.405 0-72.391-53.912-132.418-123.692-142.066z" fill="#dbedff"/><path d="m215.17 422.54c-32.806-26.307-53.856-66.697-53.856-111.921 0-70.78 51.539-129.743 119.059-141.349-7.924-1.362-16.065-2.081-24.372-2.081-79.087 0-143.43 64.343-143.43 143.43 0 47.873 23.581 90.338 59.732 116.405l5.567 1.03h37.301v-5.514z" fill="#b5dcff"/><path d="m308.892 405.936c-1.565-8.863-9.361-16.297-18.361-16.297-3.031 0-66.032 0-69.063 0-9 0-16.795 7.434-18.361 16.297-1.194 6.76-5.144 15.655-15.477 22.117h136.739c-10.333-6.462-14.283-15.357-15.477-22.117z" fill="#365e7d"/><path d="m244.057 405.936c1.565-8.863 9.361-16.297 18.361-16.297-18.371 0-39.237 0-40.95 0-9 0-16.795 7.434-18.361 16.297-1.194 6.76-5.144 15.655-15.477 22.117h40.95c10.333-6.462 14.283-15.357 15.477-22.117z" fill="#2b4d66"/><path d="m339.698 427.023h-167.396c23.571 16.996 52.484 27.025 83.698 27.025s60.127-10.029 83.698-27.025z" fill="#407093"/><g><path d="m229.501 427.023h-57.199c15.696 11.318 33.762 19.54 53.296 23.775-5.909-6.925-4.489-19.082 3.903-23.775z" fill="#365e7d"/></g><g><path d="m155.551 318.345h-14.166c-4.267 0-7.726-3.459-7.726-7.726s3.459-7.726 7.726-7.726h14.166c4.267 0 7.726 3.459 7.726 7.726 0 4.266-3.459 7.726-7.726 7.726z" fill="#ffd064"/></g><g><path d="m370.615 318.345h-14.166c-4.267 0-7.726-3.459-7.726-7.726s3.459-7.726 7.726-7.726h14.166c4.267 0 7.726 3.459 7.726 7.726.001 4.266-3.459 7.726-7.726 7.726z" fill="#ffd064"/></g><path d="m335.29 28.321c-6.095 3.631-10.192 10.265-10.192 17.874s4.097 14.244 10.192 17.874c6.246-3.515 10.472-10.197 10.472-17.874-.001-7.677-4.227-14.359-10.472-17.874z" fill="#fff1af"/><path d="m325.252 46.195c0-7.587 4.13-14.195 10.255-17.742-3.019-1.749-6.514-2.766-10.254-2.766-11.327 0-20.509 9.182-20.509 20.509s9.182 20.509 20.509 20.509c3.74 0 7.235-1.017 10.254-2.766-6.125-3.549-10.255-10.157-10.255-17.744z" fill="#ffe07d"/><path d="m281.211 390.669c11.407-.041 20.565-9.754 19.945-21.144-.627-11.534 1.318-23.168 5.847-34.025 12.171-29.178 24.755-76.036-1.215-108.028-28.896-35.597-78.102-24.276-94.857-23.872-2.667.064-4.155 3.102-2.568 5.247l9.08 12.27c2.107 2.847 2.12 6.732.033 9.593l-6.749 9.252c-1.796 2.462-3.036 5.285-3.634 8.274l-.624 3.122c-.778 3.889-2.639 7.479-5.369 10.357l-18.874 19.894c-4.013 4.23-2.938 11.112 2.173 13.917l2.876 1.578c2.714 1.489 5.841 2.048 8.902 1.591l8.506-1.27c1.073-.16 1.95.596 1.95 1.681 0 1.708 1.896 2.734 3.325 1.799l14.451-9.443c2.948-1.927 6.396-2.915 9.918-2.927 4.202-.014 10.518-1.017 16.141-5.868 2.843-2.453 7.34-.899 8.083 2.783 1.853 9.182-.909 25.197-31.18 42.568-14.483 8.311-22.445 24.848-19.39 41.264.013.072.027.144.041.217 2.374 12.368 13.35 21.217 25.944 21.172h47.245z" fill="#407093"/><path d="m209.96 300.905 5.188-3.39c-.279-.13-.557-.263-.828-.411l-2.876-1.578c-5.111-2.805-6.186-9.687-2.173-13.917l18.873-19.894c2.73-2.877 4.591-6.467 5.369-10.357l.624-3.121c.598-2.989 1.838-5.812 3.634-8.275l6.749-9.252c2.087-2.861 2.073-6.746-.033-9.593l-11.012-15.168c-.988-1.336-.783-3.019.157-4.113-9.567.518-17.625 1.642-22.701 1.764-2.667.064-4.155 3.102-2.568 5.247l9.08 12.27c2.106 2.847 2.12 6.732.033 9.593l-6.749 9.252c-1.796 2.462-3.036 5.285-3.634 8.274l-.624 3.122c-.778 3.889-2.639 7.479-5.369 10.357l-18.874 19.894c-4.013 4.23-2.938 11.112 2.173 13.917l2.876 1.578c2.714 1.489 5.841 2.048 8.902 1.591l8.506-1.269c1.073-.16 1.95.596 1.95 1.681.002 1.707 1.897 2.732 3.327 1.798z" fill="#365e7d"/><path d="m235.068 369.497c-.014-.072-.027-.144-.041-.217-3.055-16.416 4.908-32.953 19.39-41.263 17.991-10.324 31.466-22.703 31.519-38.548.028-8.406-9.525-13.317-16.473-8.584l-10.543 7.182c.772 9.433-3.977 24.127-31.547 39.949-14.483 8.31-22.445 24.848-19.39 41.263.014.072.027.145.041.217 2.375 12.368 13.35 21.217 25.944 21.172h27.043c-12.594.045-23.568-8.803-25.943-21.171z" fill="#365e7d"/><g><path d="m232.774 263.138c-2.529 0-4.984-1.326-6.316-3.686-1.966-3.484-.735-7.903 2.749-9.869l9.232-5.209c3.484-1.965 7.903-.734 9.869 2.749 1.966 3.484.735 7.903-2.749 9.869l-9.232 5.209c-1.124.635-2.347.937-3.553.937z" fill="#2b4d66"/></g><g><path d="m266.037 2.634c-6.095 3.631-10.192 10.265-10.192 17.874s4.097 14.244 10.192 17.874c6.246-3.515 10.472-10.197 10.472-17.874s-4.226-14.359-10.472-17.874z" fill="#fff1af"/><path d="m256 20.509c0-7.587 4.13-14.195 10.255-17.742-3.02-1.75-6.515-2.767-10.255-2.767-11.327 0-20.509 9.182-20.509 20.509s9.182 20.509 20.509 20.509c3.74 0 7.235-1.017 10.254-2.766-6.124-3.548-10.254-10.157-10.254-17.743z" fill="#ffe07d"/></g><g><path d="m196.785 28.321c-6.095 3.631-10.192 10.265-10.192 17.874s4.097 14.244 10.192 17.874c6.246-3.515 10.472-10.197 10.472-17.874-.001-7.677-4.226-14.359-10.472-17.874z" fill="#fff1af"/><path d="m186.748 46.195c0-7.587 4.13-14.195 10.255-17.742-3.019-1.749-6.514-2.766-10.254-2.766-11.327 0-20.509 9.182-20.509 20.509s9.182 20.509 20.509 20.509c3.74 0 7.235-1.017 10.254-2.766-6.125-3.549-10.255-10.157-10.255-17.744z" fill="#ffe07d"/></g></g></svg>