<svg id="Capa_1" enable-background="new 0 0 512 512" height="512" viewBox="0 0 512 512" width="512" xmlns="http://www.w3.org/2000/svg"><g><path d="m235.044 369.688-87.737-36.915-8.172 3.006-41.669 142.182c-1.315 4.487 2.906 8.627 7.367 7.225l44.802-14.08c3.405-1.07 7.12.018 9.409 2.758l30.115 36.036c2.998 3.588 8.786 2.381 10.101-2.106l38.389-130.99z" fill="#60b9fe"/><g><path d="m174.132 344.059-26.825-11.286-8.172 3.006-41.669 142.182c-1.315 4.487 2.906 8.627 7.367 7.225l30.774-9.672z" fill="#1ca8ff"/></g><path d="m414.534 477.961-41.668-142.182-8.877-4.38-88.08 37.602-1.556 7.802 38.388 130.99c1.315 4.487 7.103 5.694 10.101 2.106l30.115-36.036c2.289-2.739 6.004-3.828 9.409-2.758l44.802 14.08c4.46 1.403 8.681-2.737 7.366-7.224z" fill="#60b9fe"/><path d="m302.231 357.763-26.323 11.237-1.556 7.802 38.388 130.99c1.315 4.487 7.103 5.694 10.101 2.106l17.75-21.24z" fill="#1ca8ff"/><path d="m448.47 192.47c0 12.395-14.785 23.178-17.102 34.893-2.388 12.072 7.101 27.675 2.496 38.782-4.686 11.3-22.476 15.603-29.2 25.647-6.776 10.121-3.985 28.194-12.567 36.775-8.581 8.581-26.654 5.79-36.775 12.566-10.044 6.724-14.347 24.514-25.647 29.2-11.107 4.605-26.71-4.884-38.782-2.496-11.715 2.317-22.498 17.102-34.893 17.102s-23.178-14.785-34.893-17.102c-12.072-2.388-27.675 7.101-38.782 2.496-11.3-4.686-15.603-22.476-25.647-29.201-10.121-6.776-28.194-3.985-36.775-12.567-8.581-8.581-5.79-26.654-12.566-36.775-6.724-10.044-24.514-14.347-29.2-25.647-4.606-11.107 4.884-26.71 2.496-38.782-2.317-11.715-17.102-22.498-17.102-34.893s14.785-23.178 17.102-34.893c2.388-12.072-7.101-27.675-2.496-38.782 4.686-11.3 22.476-15.603 29.2-25.647 6.776-10.121 3.985-28.194 12.567-36.775 8.581-8.581 26.654-5.79 36.775-12.566 10.044-6.724 14.347-24.514 25.647-29.2 11.107-4.606 26.71 4.884 38.782 2.496 11.714-2.316 22.497-17.101 34.892-17.101s23.178 14.785 34.893 17.102c12.072 2.388 27.675-7.101 38.782-2.496 11.301 4.686 15.603 22.476 25.647 29.2 10.121 6.776 28.194 3.985 36.775 12.567 8.581 8.581 5.79 26.654 12.566 36.775 6.724 10.044 24.514 14.347 29.2 25.647 4.606 11.107-4.884 26.71-2.496 38.782 2.318 11.716 17.103 22.498 17.103 34.893z" fill="#ff7f87"/><path d="m259.073 370.334c-11.301-4.686-15.603-22.476-25.648-29.201-10.121-6.776-28.194-3.985-36.775-12.566s-5.79-26.654-12.566-36.775c-6.724-10.044-24.514-14.347-29.2-25.647-4.605-11.107 4.884-26.71 2.496-38.782-2.317-11.715-17.102-22.498-17.102-34.893s14.785-23.178 17.102-34.893c2.388-12.072-7.101-27.676-2.496-38.782 4.686-11.301 22.476-15.603 29.2-25.647 6.776-10.121 3.985-28.194 12.567-36.775 8.581-8.581 26.654-5.79 36.775-12.566 10.044-6.724 14.347-24.514 25.647-29.2 10.065-4.174 23.824 3.228 35.3 2.876-1.187-.036-2.349-.156-3.481-.38-11.714-2.318-22.497-17.103-34.892-17.103s-23.178 14.785-34.893 17.102c-12.071 2.388-27.675-7.101-38.781-2.496-11.301 4.686-15.603 22.476-25.647 29.2-10.121 6.776-28.194 3.985-36.775 12.566s-5.79 26.654-12.567 36.775c-6.725 10.044-24.514 14.347-29.2 25.647-4.606 11.107 4.884 26.71 2.496 38.782-2.317 11.715-17.102 22.497-17.102 34.893 0 12.395 14.785 23.178 17.102 34.893 2.388 12.071-7.101 27.675-2.496 38.782 4.686 11.3 22.476 15.603 29.2 25.647 6.776 10.121 3.985 28.194 12.566 36.775s26.654 5.79 36.775 12.566c10.045 6.725 14.347 24.515 25.648 29.201 11.107 4.605 26.71-4.884 38.782-2.496 11.715 2.317 22.498 17.103 34.893 17.103s23.178-14.785 34.893-17.103c1.132-.224 2.294-.343 3.482-.38-11.477-.352-25.237 7.051-35.303 2.877z" fill="#ff636e"/><ellipse cx="256" cy="190.609" fill="#ff636e" rx="127.889" ry="127.89" transform="matrix(.924 -.383 .383 .924 -53.456 112.476)"/><path d="m167.613 190.609c0-63.803 46.965-116.839 108.138-126.364-6.439-1.003-13.035-1.526-19.751-1.526-70.518 0-127.889 57.371-127.889 127.89s57.371 127.89 127.889 127.89c6.716 0 13.312-.524 19.751-1.526-61.173-9.525-108.138-62.561-108.138-126.364z" fill="#ff4654"/><path d="m256 93.625c-4.843 0-9.602.36-14.255 1.046-31.639 20.271-52.612 55.729-52.612 96.093 0 39.119 19.712 73.614 49.728 94.156l1.806-.995h31.034l3.006 1.859c44.61-8.718 78.277-48.012 78.277-95.174 0-53.564-43.421-96.985-96.984-96.985z" fill="#fff1af"/><path d="m189.922 190.753c0-40.96 21.907-76.8 54.642-96.454-48.172 5.66-85.547 46.617-85.547 96.31 0 47.163 33.667 86.456 78.277 95.174l2.702-1.488c-30.186-20.157-50.074-54.521-50.074-93.542z" fill="#ffe07d"/><g><path d="m256 161.468c-4.267 0-7.726-3.459-7.726-7.726v-52.39c0-4.267 3.459-7.726 7.726-7.726s7.726 3.459 7.726 7.726v52.39c.001 4.267-3.459 7.726-7.726 7.726z" fill="#ffc250"/></g><g><path d="m274.23 127.639h-36.46c-4.267 0-7.726-3.459-7.726-7.726s3.459-7.726 7.726-7.726h36.46c4.267 0 7.726 3.459 7.726 7.726s-3.459 7.726-7.726 7.726z" fill="#ffc250"/></g><path d="m266.707 147.911c-1.183 0-2.283 0-3.332 0-18.115 4.944-27.911 26.357-17.588 43.709 3.748 6.301 6.771 13.019 8.498 19.981l1.485 1.498h24.816l2.62-2.482c1.673-6.742 4.6-13.248 8.23-19.35 11.378-19.123-2.476-43.356-24.729-43.356z" fill="#ffd064"/><path d="m246.52 191.269c-10.985-18.465 1.552-41.684 22.458-43.266-.747-.056-1.503-.092-2.271-.092-8.472 0-12.956 0-21.415 0-22.253 0-36.106 24.232-24.729 43.357 3.63 6.102 6.557 12.607 8.23 19.35l2.46 2.482h25.956l-2.46-2.482c-1.672-6.742-4.599-13.248-8.229-19.349z" fill="#ffc250"/><path d="m273.761 240.26-1.673-1.92h-15.284c.555 16.455.206 32.898-1.018 49.251.072 0 .143.003.215.003 6.4 0 12.653-.627 18.707-1.81-1.495-15.081-1.828-30.308-.947-45.524z" fill="#ffd064"/><path d="m257.807 238.339h-17.655l-1.912 1.92c.881 15.217.548 30.444-.946 45.524 6.054 1.183 12.307 1.81 18.707 1.81.264 0 .526-.008.789-.01 1.276-16.345 1.626-32.79 1.017-49.244z" fill="#ffc250"/><path d="m293.285 210.618h-74.571c-6.354 0-11.552 5.199-11.552 11.552v6.536c0 6.354 5.199 11.552 11.552 11.552h74.571c6.354 0 11.552-5.199 11.552-11.552v-6.536c.001-6.353-5.198-11.552-11.552-11.552z" fill="#ffe07d"/><path d="m233.119 228.707v-6.536c0-6.354 5.198-11.553 11.552-11.553h-25.956c-6.354 0-11.553 5.199-11.553 11.553v6.536c0 6.354 5.199 11.552 11.553 11.552h25.956c-6.354.001-11.552-5.198-11.552-11.552z" fill="#ffd064"/></g></svg>