<svg id="Capa_1" enable-background="new 0 0 512 512" height="512" viewBox="0 0 512 512" width="512" xmlns="http://www.w3.org/2000/svg"><g><g fill="#ffc250"><path d="m457.075 55.241h-48.372l-2.82 1.768v23.308l2.82 3.485h48.372c2.419 0 4.387 1.968 4.387 4.388v23.896c0 34.738-7.001 68.351-20.81 99.908-11.036 25.22-33.97 43.503-61.35 48.909l-17.734 3.501-3.589 1.431-24.81 31.068.851 2.051 50.814-10.031c36.552-7.216 67.201-31.695 81.985-65.481 15.398-35.189 23.205-72.655 23.205-111.357v-23.895c-.001-18.168-14.781-32.949-32.949-32.949z"/><path d="m150.432 264.404-17.734-3.501c-27.38-5.405-50.314-23.689-61.35-48.909-13.808-31.557-20.81-65.17-20.81-99.908v-23.896c0-2.42 1.968-4.388 4.388-4.388h48.372l1.578-1.167v-26.398l-1.578-.995h-48.373c-18.168 0-32.949 14.781-32.949 32.949v23.896c0 38.702 7.807 76.168 23.205 111.357 14.784 33.786 45.432 58.265 81.985 65.481l50.815 10.031.746-1.751-23.522-31.369z"/></g><g fill="#ebb044"><path d="m405.294 251.209c-7.962 4.553-16.721 7.864-25.992 9.694l-17.734 3.501-3.589 1.431-24.81 31.068.851 2.051 47.686-9.413c8.826-12.237 16.705-25.045 23.588-38.332z"/><path d="m405.882 57.009v23.308l2.82 3.485h30.906v-28.561h-30.906z"/><path d="m150.432 264.404-17.734-3.501c-9.271-1.83-18.03-5.142-25.992-9.694 6.883 13.287 14.762 26.095 23.588 38.333l47.686 9.413.746-1.751-23.522-31.369z"/><path d="m72.392 83.802h30.906l1.578-1.167v-26.398l-1.578-.996h-30.906z"/></g><path d="m275.919 354.756-3.059-1.827h-6.835c-2.232 11.842-7.546 31.586-19.374 44.555h54.152l2.265-2.55c-17.296-11.532-24.444-30.172-27.149-40.178z" fill="#ffd064"/><path d="m268.086 352.929h-29.994l-2.011 1.827c-2.705 10.006-9.852 28.646-27.149 40.178l3.148 2.55h36.632c11.827-12.969 17.141-32.713 19.374-44.555z" fill="#ffc250"/><path d="m295.653 317.902h-80.507l-1.183 2.353v10.941c0 13.04 10.571 23.612 23.612 23.612h36.852c13.041 0 23.612-10.572 23.612-23.612v-10.941z" fill="#ffc250"/><path d="m247.753 331.196v-10.941l1.183-2.353h-33.791l-1.183 2.353v10.941c0 13.04 10.571 23.612 23.612 23.612h33.791c-13.041 0-23.612-10.572-23.612-23.612z" fill="#ebb044"/><path d="m398.156 23.915h-241.458l-8.49 5.604v79.326c0 74.61 29.051 142.425 76.45 192.776 9.649 10.25 21.945 17.393 35.336 20.908h19.753c20.315 0 39.839-8.229 53.764-23.021 46.619-49.523 75.192-116.221 75.192-189.603v-78.02z" fill="#ffd064"/><path d="m225.558 299.507c-46.619-49.522-75.192-116.221-75.192-189.603v-78.02l12.073-7.97h-47.068l-12.073 7.97v78.02c0 73.382 28.572 140.081 75.192 189.603 13.925 14.792 33.449 23.022 53.764 23.022h47.068c-20.315 0-39.84-8.229-53.764-23.022z" fill="#ffc250"/><path d="m413.806 0h-269.3c-4.033 1.117-6.997 4.805-6.997 9.193v13.497c0 4.389 2.965 8.077 6.998 9.194h269.299c5.159 0 9.341-4.182 9.341-9.341v-13.202c0-5.159-4.182-9.341-9.341-9.341z" fill="#ffe07d"/><path d="m137.717 22.543v-13.202c0-5.159 4.182-9.341 9.341-9.341h-48.864c-5.159 0-9.341 4.182-9.341 9.341v13.203c0 5.159 4.182 9.341 9.341 9.341h48.864c-5.159-.001-9.341-4.183-9.341-9.342z" fill="#ffd064"/><path d="m345.484 394.934h-178.968c-8.753 0-15.848 7.095-15.848 15.848v69.334l5.137 4.032h199.597l5.929-4.032v-69.334c.001-8.753-7.095-15.848-15.847-15.848z" fill="#da7e4a"/><path d="m214.54 410.782c0-8.753 7.095-15.848 15.848-15.848h-63.871c-8.753 0-15.848 7.095-15.848 15.848v69.334l5.137 4.032h63.871l-5.137-4.032z" fill="#cb6c35"/><path d="m373.084 480.116h-173.03c-3.956 1.177-6.842 4.836-6.842 9.174v13.535c0 4.338 2.887 7.998 6.842 9.175h173.03c5.159 0 9.341-4.182 9.341-9.341v-13.203c-.001-5.159-4.183-9.34-9.341-9.34z" fill="#e39b74"/><path d="m193.447 502.659v-13.203c0-5.159 4.182-9.341 9.341-9.341h-63.871c-5.159 0-9.341 4.182-9.341 9.341v13.203c0 5.159 4.182 9.341 9.341 9.341h63.871c-5.159 0-9.341-4.182-9.341-9.341z" fill="#da7e4a"/><path d="m256.053 69.349c-4.841 0-9.597.36-14.247 1.045-31.621 20.26-52.584 55.699-52.584 96.041 0 39.098 19.701 73.574 49.701 94.105l1.805-.994h31.017l3.004 1.858c44.586-8.714 78.235-47.986 78.235-95.122 0-53.536-43.397-96.933-96.931-96.933z" fill="#fff1af"/><path d="m190.011 166.424c0-40.938 21.895-76.758 54.612-96.401-48.146 5.657-85.501 46.592-85.501 96.257 0 47.137 33.649 86.409 78.235 95.122l2.7-1.488c-30.168-20.146-50.046-54.49-50.046-93.49z" fill="#ffe07d"/><g><path d="m256.053 137.155c-4.265 0-7.722-3.457-7.722-7.722v-52.362c0-4.265 3.457-7.722 7.722-7.722s7.722 3.457 7.722 7.722v52.362c0 4.264-3.457 7.722-7.722 7.722z" fill="#ffc250"/></g><g><path d="m274.273 103.344h-36.44c-4.265 0-7.722-3.457-7.722-7.722s3.457-7.722 7.722-7.722h36.44c4.265 0 7.722 3.457 7.722 7.722s-3.457 7.722-7.722 7.722z" fill="#ffc250"/></g><path d="m266.755 123.606c-1.183 0-2.282 0-3.331 0-18.105 4.942-27.896 26.342-17.578 43.685 3.746 6.298 6.767 13.011 8.494 19.97l1.484 1.498h24.802l2.619-2.481c1.672-6.739 4.597-13.24 8.225-19.339 11.371-19.114-2.474-43.333-24.715-43.333z" fill="#ffd064"/><path d="m246.579 166.939c-10.979-18.455 1.551-41.662 22.445-43.242-.747-.056-1.502-.091-2.269-.091-8.468 0-12.949 0-21.403 0-22.241 0-36.086 24.219-24.715 43.333 3.628 6.099 6.553 12.6 8.225 19.339l2.458 2.481h25.942l-2.458-2.481c-1.672-6.739-4.597-13.24-8.225-19.339z" fill="#ffc250"/><path d="m273.804 215.903-1.672-1.919h-15.276c.555 16.446.206 32.88-1.018 49.225.072 0 .143.003.215.003 6.397 0 12.646-.626 18.697-1.809-1.493-15.073-1.826-30.291-.946-45.5z" fill="#ffd064"/><path d="m257.859 213.984h-17.645l-1.911 1.919c.88 15.208.547 30.427-.946 45.499 6.051 1.182 12.3 1.809 18.697 1.809.264 0 .525-.008.789-.01 1.275-16.336 1.625-32.772 1.016-49.217z" fill="#ffc250"/><path d="m293.318 186.278h-74.53c-6.35 0-11.546 5.196-11.546 11.546v6.533c0 6.35 5.196 11.546 11.546 11.546h74.53c6.35 0 11.546-5.196 11.546-11.546v-6.533c0-6.35-5.196-11.546-11.546-11.546z" fill="#ffe07d"/><path d="m233.185 204.357v-6.533c0-6.35 5.196-11.546 11.546-11.546h-25.942c-6.35 0-11.546 5.196-11.546 11.546v6.533c0 6.35 5.196 11.546 11.546 11.546h25.942c-6.351 0-11.546-5.196-11.546-11.546z" fill="#ffd064"/></g></svg>