<svg id="Capa_1" enable-background="new 0 0 511.999 511.999" height="512" viewBox="0 0 511.999 511.999" width="512" xmlns="http://www.w3.org/2000/svg"><g><path d="m158.639 2.87-5.82-2.87h-34.751c-3.621 0-5.875 3.931-4.046 7.056l101.019 172.361 22.657-38.699z" fill="#ff636e"/><path d="m215.041 179.417 22.658-38.7-19.12-33.336-22.768 39.224z" fill="#ff4654"/><path d="m236.505 142.756 21.252-36.3-59.022-100.63c-2.113-3.609-5.981-5.826-10.162-5.826h-35.754z" fill="#ff4654"/><path d="m236.505 142.756 21.252-36.3-19.42-33.111-21.157 36.446z" fill="#fd2a39"/><g><path d="m311.335 237.571c-4.267 0-7.726-3.459-7.726-7.726v-44.342c0-.65-.529-1.179-1.178-1.179h-92.863c-.649 0-1.178.529-1.178 1.179v44.342c0 4.268-3.459 7.726-7.726 7.726s-7.726-3.459-7.726-7.726v-44.342c0-9.171 7.461-16.631 16.631-16.631h92.863c9.17 0 16.631 7.461 16.631 16.631v44.342c-.001 4.267-3.461 7.726-7.728 7.726z" fill="#ffe07d"/></g><path d="m393.931 0h-33.408l-6.665 3.213-102.08 174.602 1.131 7.525h37.759c2.368 0 4.558-1.261 5.747-3.309l101.562-174.975c1.829-3.125-.424-7.056-4.046-7.056z" fill="#ff636e"/><path d="m323.427 0c-4.181 0-8.049 2.217-10.162 5.826l-102.644 176.827c-.692 1.193.168 2.687 1.547 2.687h40.741l107.614-185.34z" fill="#ff4654"/><circle cx="256" cy="361.369" fill="#ffd064" r="150.63"/><path d="m139.365 361.369c0-77.443 58.446-141.224 133.632-149.67-5.581-.627-11.25-.96-16.998-.96-83.191 0-150.63 67.439-150.63 150.63s67.44 150.63 150.63 150.63c5.748 0 11.417-.333 16.998-.96-75.186-8.446-133.632-72.227-133.632-149.67z" fill="#ffc250"/><g><path d="m256 256.881c-5.218 0-10.345.388-15.358 1.126-34.087 21.839-56.683 60.041-56.683 103.528 0 42.146 21.237 79.31 53.576 101.441l1.946-1.072h33.435l3.239 2.002c48.062-9.393 84.334-51.727 84.334-102.538-.001-57.706-46.782-104.487-104.489-104.487z" fill="#fff1af"/><path d="m184.809 361.524c0-44.13 23.602-82.742 58.869-103.917-51.899 6.098-92.166 50.224-92.166 103.762 0 50.812 36.272 93.146 84.334 102.538l2.911-1.604c-32.521-21.717-53.948-58.739-53.948-100.779z" fill="#ffe07d"/><g><path d="m256 329.973c-4.597 0-8.324-3.727-8.324-8.324v-56.444c0-4.597 3.727-8.324 8.324-8.324s8.324 3.727 8.324 8.324v56.444c0 4.597-3.727 8.324-8.324 8.324z" fill="#ffc250"/></g><g><path d="m275.64 293.527h-39.281c-4.597 0-8.324-3.727-8.324-8.324s3.727-8.324 8.324-8.324h39.281c4.597 0 8.324 3.727 8.324 8.324.001 4.597-3.726 8.324-8.324 8.324z" fill="#ffc250"/></g><path d="m267.536 315.368c-1.275 0-2.46 0-3.59 0-19.517 5.327-30.07 28.396-18.949 47.091 4.039 6.789 7.295 14.026 9.156 21.527l1.6 1.614h26.736l2.823-2.674c1.802-7.264 4.955-14.273 8.866-20.847 12.258-20.604-2.667-46.711-26.642-46.711z" fill="#ffd064"/><path d="m245.787 362.079c-11.835-19.893 1.672-44.91 24.195-46.613-.805-.061-1.619-.099-2.446-.099-9.128 0-13.958 0-23.072 0-23.975 0-38.9 26.107-26.642 46.712 3.911 6.574 7.064 13.583 8.866 20.847l2.65 2.674h27.965l-2.65-2.674c-1.802-7.264-4.955-14.273-8.866-20.847z" fill="#ffc250"/><path d="m275.135 414.861-1.803-2.069h-16.467c.598 17.728.222 35.443-1.097 53.062.077 0 .154.003.232.003 6.895 0 13.632-.675 20.154-1.95-1.609-16.247-1.968-32.652-1.019-49.046z" fill="#ffd064"/><path d="m257.946 412.792h-19.021l-2.06 2.069c.949 16.394.59 32.799-1.019 49.046 6.522 1.275 13.259 1.95 20.154 1.95.284 0 .566-.008.85-.01 1.375-17.611 1.753-35.328 1.096-53.055z" fill="#ffc250"/><path d="m296.17 382.926h-80.34c-6.845 0-12.446 5.601-12.446 12.446v7.042c0 6.845 5.601 12.446 12.446 12.446h80.34c6.845 0 12.446-5.601 12.446-12.446v-7.042c0-6.845-5.601-12.446-12.446-12.446z" fill="#ffe07d"/><path d="m231.348 402.415v-7.042c0-6.845 5.601-12.446 12.446-12.446h-27.964c-6.845 0-12.446 5.601-12.446 12.446v7.042c0 6.845 5.601 12.446 12.446 12.446h27.965c-6.846 0-12.447-5.601-12.447-12.446z" fill="#ffd064"/></g></g></svg>